<?xml version="1.0" encoding="UTF-8" standalone="no"?>
<!-- Created with Inkscape (http://www.inkscape.org/) -->

<svg
   width="62.660641mm"
   height="61.845734mm"
   viewBox="0 0 62.660641 61.845734"
   version="1.1"
   id="svg5"
   xml:space="preserve"
   xmlns:inkscape="http://www.inkscape.org/namespaces/inkscape"
   xmlns:sodipodi="http://sodipodi.sourceforge.net/DTD/sodipodi-0.dtd"
   xmlns="http://www.w3.org/2000/svg"
   xmlns:svg="http://www.w3.org/2000/svg"><sodipodi:namedview
     id="namedview7"
     pagecolor="#ffffff"
     bordercolor="#666666"
     borderopacity="1.0"
     inkscape:showpageshadow="2"
     inkscape:pageopacity="0.0"
     inkscape:pagecheckerboard="0"
     inkscape:deskcolor="#d1d1d1"
     inkscape:document-units="mm"
     showgrid="false" /><defs
     id="defs2" /><g
     inkscape:label="Layer 1"
     inkscape:groupmode="layer"
     id="layer1"
     transform="translate(-62.076955,-178.10406)"><path
       style="fill:#000000;stroke-width:0.264583"
       d="m 88.634534,239.7004 c -6.729456,-0.97997 -12.317854,-3.78447 -17.337909,-8.70091 -3.157483,-3.09231 -4.544565,-4.99908 -6.231726,-8.56652 -2.303308,-4.87026 -3.179556,-9.30599 -2.953522,-14.95131 0.300953,-7.51645 3.164006,-14.25927 8.352913,-19.6721 l 1.708891,-1.78263 -1.032406,-0.44368 c -0.567824,-0.24403 -1.717016,-0.49795 -2.55376,-0.56427 -0.836745,-0.0663 -1.521355,-0.21805 -1.521355,-0.33716 0,-0.43101 2.527258,-0.58278 4.549504,-0.27321 l 2.064398,0.31602 1.690543,-1.20635 c 2.441493,-1.74221 6.74826,-3.6945 9.951806,-4.51122 3.681775,-0.93865 9.068506,-1.17907 12.603609,-0.56253 8.7168,1.52025 16.06,6.29425 20.92263,13.60233 7.07979,10.64028 6.6712,25.19949 -0.99397,35.41793 -0.94478,1.25949 -0.98699,1.38837 -0.57053,1.7423 1.5,1.27483 4.41194,2.32157 6.45843,2.32157 1.59943,0 1.15876,0.49462 -0.51861,0.58211 -2.1812,0.11376 -4.73189,-0.26168 -6.43447,-0.94709 l -1.47354,-0.59322 -1.43688,1.29769 c -4.52196,4.08393 -10.06092,6.73559 -16.121253,7.71771 -2.701462,0.43779 -6.569511,0.48635 -9.122793,0.11454 z m 8.990502,-1.94744 c 5.558924,-0.90611 10.611274,-3.34451 14.942364,-7.21158 l 1.18402,-1.05718 -1.33172,-1.45711 c -1.61332,-1.76524 -3.0717,-4.46302 -3.75912,-6.9538 -0.28048,-1.01627 -1.2056,-6.93747 -2.05583,-13.15822 -0.85022,-6.22076 -1.63564,-11.22069 -1.74537,-11.11097 -0.3802,0.3802 -10.76967,24.08469 -11.268949,25.71109 -0.275884,0.8987 -0.612053,1.6273 -0.747043,1.61911 -0.134991,-0.008 -3.036525,-6.08779 -6.44786,-13.51023 -3.411333,-7.42245 -6.27814,-13.40514 -6.370683,-13.29486 -0.180171,0.21468 -2.13705,22.29565 -2.120908,23.93184 0.01062,1.07605 0.724134,1.80094 1.772688,1.80094 0.322835,0 0.660557,0.11906 0.750494,0.26458 0.106708,0.17266 -1.496558,0.26459 -4.614594,0.26459 -2.627963,0 -4.778115,-0.10358 -4.778115,-0.23018 0,-0.12659 0.543195,-0.2914 1.2071,-0.36623 1.190102,-0.13414 2.245827,-0.83181 2.79215,-1.84519 0.135571,-0.25147 0.958161,-6.59922 1.827977,-14.1061 1.25117,-10.79814 1.518285,-13.76967 1.278898,-14.22716 -0.607133,-1.16029 -2.885535,-4.32793 -3.617085,-5.0288 l -0.751248,-0.71974 -1.819158,1.85145 c -3.46249,3.52397 -6.066574,8.21378 -7.352089,13.2407 -0.483656,1.8913 -0.574656,2.98531 -0.572216,6.87916 0.0025,3.98357 0.08828,4.95536 0.614273,6.9584 1.325318,5.04701 3.512029,9.07106 6.871452,12.64504 2.647018,2.81608 4.972861,4.61109 7.986613,6.16381 5.765174,2.97029 11.879887,3.96444 18.123959,2.94664 z m 19.190354,-11.97899 c 0.60253,-0.83675 1.67607,-2.71198 2.38565,-4.16719 4.55397,-9.33932 3.62593,-20.63613 -2.41287,-29.37157 -1.53225,-2.21647 -5.05194,-5.68649 -7.34839,-7.24467 -7.75019,-5.25866 -17.368346,-6.50406 -26.272242,-3.40183 -2.306708,0.80369 -5.568351,2.4673 -7.063992,3.60302 l -0.619407,0.47034 1.369977,1.03902 c 1.684099,1.27726 3.446344,3.57408 4.755755,6.1984 0.54456,1.09141 3.346121,7.10406 6.225692,13.36146 2.879572,6.25739 5.313646,11.46636 5.409052,11.57548 0.09541,0.10912 3.074104,-6.32025 6.619325,-14.2875 3.54522,-7.96724 6.54363,-14.59702 6.66313,-14.73284 0.1195,-0.13582 0.26716,-0.19535 0.32814,-0.13229 0.061,0.0631 1.20388,7.06931 2.53979,15.56946 1.33591,8.50015 2.67078,16.23921 2.96638,17.19792 0.80596,2.61392 2.53406,5.84414 3.12649,5.84414 0.1276,0 0.72498,-0.68461 1.32752,-1.52135 z"
       id="path183" /></g></svg>
